<svg width="126" height="37" viewBox="0 0 126 37" fill="none" xmlns="http://www.w3.org/2000/svg">
<path fill-rule="evenodd" clip-rule="evenodd" d="M47.7442 1.27747V25.7648L28.5972 35.7313L47.7442 1.27747Z" fill="#3CBD0D"/>
<path fill-rule="evenodd" clip-rule="evenodd" d="M47.7461 1.27747L66.8928 35.731L47.7461 25.7648V1.27747Z" fill="#9ED110"/>
<path fill-rule="evenodd" clip-rule="evenodd" d="M47.7442 25.7649L66.891 35.7312H28.597L47.7442 25.7649Z" fill="#038726"/>
<path fill-rule="evenodd" clip-rule="evenodd" d="M70.1644 10.3798C70.1644 3.27688 76.3765 0.499878 82.3741 0.499878C86.6186 0.499878 90.4988 1.51195 94.2604 3.54437L91.5054 8.50223C88.9527 7.32097 85.9948 6.22887 83.1852 6.26698C80.7879 6.29966 75.9359 6.83996 75.9359 10.2813C75.9359 17.0502 95.7199 13.9596 95.7199 26.2718C95.7199 34.2937 89.3423 36.496 82.7052 36.496C78.4722 36.496 73.6875 35.2117 69.7734 33.5697L72.7913 28.14C73.5909 28.472 74.3973 28.7678 75.22 29.035C77.2531 29.6947 80.0489 30.4254 82.1848 30.4254C84.5045 30.4254 89.8469 30.0357 89.8476 26.6161C89.8483 19.385 70.1644 22.6457 70.1644 10.3798Z" fill="#1E212B"/>
<path fill-rule="evenodd" clip-rule="evenodd" d="M6.19224 15.7612H11.5509L19.5979 1.28126H26.1824L16.6112 18.5042L26.1824 35.7269H19.5979L11.5511 21.2476H6.19224V35.7313H0V1.27747H6.19224V15.7612Z" fill="#1E212B"/>
<path fill-rule="evenodd" clip-rule="evenodd" d="M103.121 35.7318H125.999V30.2428H109.313V21.2494H124.572V15.7604H109.313V6.76652H125.999V1.27747H103.121C103.121 12.7624 103.121 24.2469 103.121 35.7318Z" fill="#1E212B"/>
</svg>
